<?xml version="1.0" encoding="utf-8"?>
<!-- Generator: Adobe Illustrator 22.1.0, SVG Export Plug-In . SVG Version: 6.00 Build 0)  -->
<svg version="1.1" id="Layer_1" xmlns="http://www.w3.org/2000/svg" xmlns:xlink="http://www.w3.org/1999/xlink" x="0px" y="0px"
	 viewBox="0 0 849 1020" style="enable-background:new 0 0 849 1020;" xml:space="preserve">
<style type="text/css">
	.st0{fill:#FFFFFF;}
</style>
<path class="st0" d="M758.3,912.3c-33.5,6-71,8.9-112.5,8.9c-6.1,0-13-0.1-20.7-0.4c-7.7-0.3-27.2-0.9-42.6-1.7V725.8h20.6
	c23.2,0,43.8,2.5,61.8,7.4c18,4.9,33.5,12.3,46.6,22.2l72.3-122.3H582.5V449.6c0-0.8,0.1-1.6,0.1-2.4c30.4,0.6,65.9,3.4,90.6,8.5
	c24.7,5.1,47,12.3,67,21.5l63.1-131.9H605.8c0-0.1,0.1-0.1,0.1-0.2l-104.3,0.2h-20.1v0H290l72.3,130.2c13.1-9.9,28.6-17.3,46.6-22.2
	c12.2-3.4,25.7-5.6,40.3-6.6c0.6,8,0.9,16.4,0.9,25.1v26.4c-0.3,7.3-0.6,14.9-0.6,22.5v57.8c-12.3,2.5-23.4,4.4-33.4,5.5
	c-10.2,1.2-19.3,1.7-27.4,1.7c-74.3,0-132.5-21.7-174.8-65.1c-42.2-43.4-63.3-103.1-63.3-179.1c0-72.8,18.8-130,56.4-171.5
	c37.6-41.5,89.2-62.2,154.7-62.2c35.7,0,68,5.6,97.1,16.8c29,11.2,55.9,28.5,80.5,52l2.6-160.6c-29.9-5.2-57.8-9.2-83.8-12
	c-26-2.8-50-4.1-72-4.1c-58.9,0-111.6,8.2-158,24.6C181.6,41,141.2,65.9,106.6,99.2c-34.5,33.4-60.9,71.9-79.2,115.6
	C9.1,258.5,0,305.1,0,354.7C0,456,32.9,536.9,98.6,597.4c65.7,60.5,154,90.7,264.8,90.7c28.8,0,57.5-1.9,86-5.8v162.3
	c0,35.4-2.3,67.2-7,95.5c-4.6,28.3-11.8,54.9-21.3,79.9h374.3L849,885.5C822.1,897.4,791.8,906.3,758.3,912.3z"/>
</svg>
